<svg xmlns="http://www.w3.org/2000/svg" viewBox="0 0 24 24" fill="none" stroke="currentColor" stroke-width="2" stroke-linecap="round" stroke-linejoin="round">
  <!-- Center person -->
  <path d="M12 12.2c2 0 3.6-1.6 3.6-3.6S14 5 12 5 8.4 6.6 8.4 8.6 10 12.2 12 12.2z"/>
  <path d="M6.5 21c.7-3.1 3-5.2 5.5-5.2s4.8 2.1 5.5 5.2"/>
  <!-- Left person -->
  <path d="M6.9 12c1.6 0 2.9-1.3 2.9-2.9S8.5 6.2 6.9 6.2 4 7.5 4 9.1 5.3 12 6.9 12z"/>
  <path d="M2.6 20.6c.4-2.2 2-3.8 3.8-4.3"/>
  <!-- Right person -->
  <path d="M17.1 12c1.6 0 2.9-1.3 2.9-2.9s-1.3-2.9-2.9-2.9-2.9 1.3-2.9 2.9 1.3 2.9 2.9 2.9z"/>
  <path d="M21.4 20.6c-.4-2.2-2-3.8-3.8-4.3"/>
</svg>
