<svg xmlns="http://www.w3.org/2000/svg">
<symbol id="home" viewBox="0 0 24 24">
  <path d="M3 10.5L12 3l9 7.5"/>
  <path d="M5 9.8V21h14V9.8"/>
  <path d="M10 21v-7h4v7"/>
</symbol>
<symbol id="friends" viewBox="0 0 24 24">
  <!-- Center person -->
  <path d="M12 12.2c2 0 3.6-1.6 3.6-3.6S14 5 12 5 8.4 6.6 8.4 8.6 10 12.2 12 12.2z"/>
  <path d="M6.5 21c.7-3.1 3-5.2 5.5-5.2s4.8 2.1 5.5 5.2"/>
  <!-- Left person -->
  <path d="M6.9 12c1.6 0 2.9-1.3 2.9-2.9S8.5 6.2 6.9 6.2 4 7.5 4 9.1 5.3 12 6.9 12z"/>
  <path d="M2.6 20.6c.4-2.2 2-3.8 3.8-4.3"/>
  <!-- Right person -->
  <path d="M17.1 12c1.6 0 2.9-1.3 2.9-2.9s-1.3-2.9-2.9-2.9-2.9 1.3-2.9 2.9 1.3 2.9 2.9 2.9z"/>
  <path d="M21.4 20.6c-.4-2.2-2-3.8-3.8-4.3"/>
</symbol>
<symbol id="challenges" viewBox="0 0 24 24">
  <path d="M3 21h18"/>
  <path d="M4 14h5v7H4z"/>
  <path d="M10 10h4v11h-4z"/>
  <path d="M15 16h5v5h-5z"/>
</symbol>
<symbol id="summary" viewBox="0 0 24 24">
  <!-- Axes -->
  <path d="M4 19V5"/>
  <path d="M4 19h16"/>
  <!-- Bars -->
  <path d="M8 19v-6"/>
  <path d="M12 19v-9"/>
  <path d="M16 19v-4"/>
  <!-- Trend line -->
  <path d="M8 10l4-3 4 2 3-5"/>
</symbol>
<symbol id="menu" viewBox="0 0 24 24">
  <path d="M5 7h14"/>
  <path d="M5 12h14"/>
  <path d="M5 17h14"/>
</symbol>
</svg>
