<svg xmlns="http://www.w3.org/2000/svg" width="1024" height="1024" viewBox="0 0 1024 1024">
  <path d="M 698 469 L 697 475 L 718 507 L 771 611 L 782 620 L 805 629 L 836 647 L 856 669 L 866 672 L 877 670 L 877 636 L 812 602 L 732 491 L 709 471 Z M 146 515 L 144 529 L 151 548 L 164 557 L 193 569 L 223 577 L 271 581 L 308 620 L 332 639 L 376 667 L 416 684 L 447 688 L 545 688 L 592 681 L 615 670 L 642 645 L 665 611 L 665 605 L 653 587 L 646 583 L 625 613 L 617 621 L 614 620 L 632 592 L 642 571 L 644 558 L 663 592 L 709 644 L 706 674 L 717 690 L 743 696 L 809 696 L 840 688 L 848 680 L 846 665 L 830 650 L 772 621 L 766 615 L 740 569 L 725 533 L 695 484 L 676 461 L 656 451 L 629 454 L 598 470 L 548 508 L 498 555 L 496 546 L 471 525 L 456 498 L 435 479 L 448 473 L 456 464 L 478 418 L 486 394 L 486 372 L 477 362 L 462 353 L 420 349 L 367 349 L 361 352 L 383 392 L 407 408 L 399 416 L 392 430 L 389 458 L 380 465 L 368 466 L 366 463 L 375 460 L 384 449 L 385 432 L 382 426 L 381 401 L 356 353 L 341 339 L 315 327 L 284 327 L 258 336 L 232 360 L 224 377 L 224 399 L 243 435 L 293 479 L 235 495 L 233 491 L 247 471 L 247 452 L 233 435 L 225 419 L 219 415 L 206 427 L 170 473 Z" fill="#00aa50" fill-rule="evenodd"/>
</svg>