<svg xmlns="http://www.w3.org/2000/svg" width="1024" height="1024" viewBox="0 0 1024 1024">
  <path d="M 153 272 L 144 283 L 144 302 L 150 312 L 161 317 L 249 317 L 255 324 L 264 345 L 264 353 L 240 439 L 233 480 L 233 498 L 245 516 L 276 535 L 319 549 L 353 555 L 357 561 L 362 585 L 372 605 L 396 629 L 398 656 L 409 712 L 388 774 L 391 780 L 622 779 L 623 775 L 600 715 L 599 706 L 609 676 L 614 633 L 640 602 L 653 558 L 658 554 L 702 545 L 744 528 L 770 509 L 776 494 L 767 437 L 750 373 L 741 350 L 741 343 L 756 318 L 865 315 L 875 307 L 878 294 L 875 277 L 861 268 L 758 268 L 735 249 L 714 243 L 685 245 L 673 251 L 657 268 L 346 268 L 323 248 L 315 244 L 296 243 L 283 244 L 269 250 L 248 268 L 163 268 Z M 316 451 L 332 436 L 337 427 L 337 346 L 351 319 L 448 318 L 468 308 L 497 301 L 535 303 L 567 318 L 653 318 L 663 334 L 669 351 L 670 432 L 693 448 L 690 451 L 668 446 L 640 447 L 602 462 L 573 466 L 545 478 L 542 472 L 549 458 L 576 421 L 576 375 L 571 352 L 562 334 L 543 317 L 528 311 L 489 311 L 467 321 L 452 335 L 442 354 L 437 376 L 435 425 L 458 454 L 464 468 L 463 477 L 435 466 L 408 463 L 376 449 L 343 446 Z" fill="#dc0000" fill-rule="evenodd"/>
</svg>