<svg xmlns="http://www.w3.org/2000/svg" width="1024" height="1024" viewBox="0 0 1024 1024">
  <path d="M 481 608 L 478 619 L 492 649 L 500 690 L 506 703 L 517 715 L 535 718 L 669 717 L 683 713 L 690 705 L 690 683 L 673 664 L 668 665 L 657 658 L 621 645 L 608 645 L 595 638 L 583 637 L 582 566 L 578 557 L 566 559 L 517 592 Z M 147 421 L 144 423 L 144 644 L 179 644 L 194 639 L 221 637 L 229 633 L 230 622 L 215 585 L 214 574 L 202 541 L 202 529 L 196 516 L 195 496 L 190 482 L 189 431 L 177 421 Z M 851 337 L 831 316 L 802 299 L 785 292 L 743 288 L 714 292 L 701 299 L 695 298 L 659 324 L 640 348 L 628 373 L 626 384 L 622 388 L 606 388 L 568 363 L 538 350 L 507 348 L 499 344 L 467 343 L 390 350 L 355 356 L 336 363 L 323 363 L 289 376 L 283 375 L 228 402 L 210 419 L 203 430 L 197 453 L 196 471 L 201 479 L 203 501 L 216 545 L 227 570 L 228 582 L 248 626 L 255 650 L 267 672 L 267 680 L 273 686 L 273 693 L 278 698 L 289 725 L 304 734 L 447 729 L 459 727 L 468 721 L 473 709 L 471 698 L 448 679 L 419 665 L 408 664 L 375 652 L 362 651 L 357 647 L 349 575 L 345 568 L 343 551 L 325 519 L 326 516 L 342 518 L 349 522 L 377 523 L 407 517 L 415 518 L 399 529 L 377 536 L 365 536 L 351 545 L 364 608 L 371 621 L 381 626 L 409 625 L 424 619 L 438 619 L 466 606 L 474 606 L 480 599 L 499 592 L 541 566 L 580 537 L 613 507 L 618 509 L 634 544 L 648 566 L 662 580 L 685 580 L 739 558 L 747 561 L 764 560 L 778 552 L 796 528 L 810 522 L 845 497 L 863 473 L 870 458 L 877 433 L 878 402 L 870 371 Z" fill="#00a6ff" fill-rule="evenodd"/>
</svg>