<svg xmlns="http://www.w3.org/2000/svg" width="1024" height="1024" viewBox="0 0 1024 1024">
  <path d="M 521 546 L 514 551 L 514 556 L 523 571 L 523 577 L 529 583 L 533 600 L 533 622 L 529 632 L 529 643 L 496 712 L 446 782 L 447 787 L 467 800 L 510 847 L 520 851 L 538 852 L 561 849 L 573 843 L 582 823 L 572 804 L 525 774 L 518 767 L 518 761 L 543 727 L 583 655 L 591 606 L 588 586 L 574 566 L 549 551 Z M 549 144 L 518 144 L 508 149 L 497 150 L 472 164 L 453 183 L 438 215 L 436 228 L 437 264 L 441 283 L 452 307 L 440 314 L 409 320 L 363 342 L 294 403 L 267 431 L 190 533 L 190 538 L 168 573 L 157 601 L 151 624 L 151 662 L 163 696 L 188 722 L 208 734 L 239 746 L 296 746 L 321 739 L 337 726 L 342 704 L 354 684 L 378 662 L 382 663 L 364 684 L 360 696 L 348 712 L 348 717 L 332 742 L 327 757 L 321 762 L 319 770 L 299 802 L 288 830 L 294 857 L 318 872 L 462 877 L 484 870 L 491 862 L 489 842 L 473 824 L 440 802 L 421 794 L 419 787 L 439 770 L 467 736 L 489 704 L 501 677 L 512 661 L 512 653 L 517 646 L 517 636 L 522 625 L 522 591 L 511 565 L 500 554 L 464 544 L 393 550 L 353 560 L 311 577 L 305 575 L 321 566 L 351 555 L 362 554 L 370 549 L 383 549 L 399 543 L 408 544 L 421 539 L 446 538 L 469 533 L 488 522 L 495 514 L 500 494 L 484 484 L 447 473 L 442 467 L 434 467 L 422 459 L 424 456 L 482 478 L 524 489 L 538 489 L 558 494 L 638 494 L 647 490 L 682 489 L 698 484 L 793 478 L 815 472 L 837 461 L 859 445 L 867 434 L 872 420 L 872 413 L 860 399 L 850 396 L 810 394 L 769 397 L 755 402 L 717 402 L 663 391 L 590 391 L 558 375 L 521 362 L 520 358 L 543 364 L 595 362 L 609 350 L 633 301 L 632 284 L 626 268 L 627 222 L 620 199 L 610 182 L 595 166 L 579 156 Z M 288 584 L 291 584 Z M 296 580 L 299 576 L 302 578 L 300 581 Z" fill="#82501e" fill-rule="evenodd"/>
</svg>