<svg xmlns="http://www.w3.org/2000/svg" width="1024" height="1024" viewBox="132 408 760 208">
  <path d="M 144 465 L 146 493 L 157 512 L 168 522 L 192 532 L 209 545 L 221 541 L 251 544 L 259 539 L 268 521 L 277 518 L 282 520 L 287 535 L 289 554 L 286 557 L 225 562 L 204 553 L 180 554 L 170 570 L 169 582 L 174 600 L 184 607 L 343 606 L 352 600 L 357 588 L 363 541 L 368 553 L 386 558 L 412 561 L 498 558 L 585 569 L 641 568 L 735 559 L 807 561 L 815 563 L 824 576 L 825 584 L 818 594 L 817 603 L 828 608 L 862 606 L 873 599 L 878 587 L 865 523 L 861 515 L 855 511 L 833 511 L 806 517 L 737 496 L 683 496 L 639 483 L 587 473 L 555 459 L 528 452 L 499 452 L 456 462 L 403 447 L 344 441 L 312 444 L 270 456 L 255 433 L 241 422 L 223 415 L 199 414 L 181 419 L 162 431 L 150 447 Z" fill="#000000"/>
</svg>
